<?xml version="1.0" encoding="UTF-8" standalone="no"?>
<svg
   width="180"
   height="180"
   viewBox="0 0 180 180"
   fill="none"
   version="1.1"
   id="svg6"
   sodipodi:docname="SwitchEnlarge.svg"
   inkscape:version="1.1 (c68e22c387, 2021-05-23)"
   xmlns:inkscape="http://www.inkscape.org/namespaces/inkscape"
   xmlns:sodipodi="http://sodipodi.sourceforge.net/DTD/sodipodi-0.dtd"
   xmlns="http://www.w3.org/2000/svg"
   xmlns:svg="http://www.w3.org/2000/svg">
  <defs
     id="defs10" />
  <sodipodi:namedview
     id="namedview8"
     pagecolor="#ffffff"
     bordercolor="#666666"
     borderopacity="1.0"
     inkscape:pageshadow="2"
     inkscape:pageopacity="0.0"
     inkscape:pagecheckerboard="0"
     showgrid="false"
     inkscape:zoom="4.5777778"
     inkscape:cx="90.109223"
     inkscape:cy="90.109223"
     inkscape:window-width="1920"
     inkscape:window-height="1009"
     inkscape:window-x="-8"
     inkscape:window-y="-8"
     inkscape:window-maximized="1"
     inkscape:current-layer="svg6" />
  <path
     d="M 27,27.5 C 16.32674,27.5 7.5,36.32674 7.5,47 v 86 c 0,10.67326 8.82674,19.5 19.5,19.5 h 126 c 10.67326,0 19.5,-8.82674 19.5,-19.5 V 47 c 0,-10.67326 -8.82674,-19.5 -19.5,-19.5 z m 0,15 h 126 c 2.62273,0 4.5,1.877273 4.5,4.5 v 86 c 0,2.62273 -1.87727,4.5 -4.5,4.5 H 27 c -2.622727,0 -4.5,-1.87727 -4.5,-4.5 V 47 c 0,-2.622727 1.877273,-4.5 4.5,-4.5 z"
     id="FullFrame"
     opacity=".3" />
  <path
     d="M 27,27.5 C 16.32674,27.5 7.5,36.32674 7.5,47 v 86 c 0,10.67326 8.82674,19.5 19.5,19.5 h 76 c 10.67326,0 19.5,-8.82674 19.5,-19.5 V 47 c 0,-10.67326 -8.82674,-19.5 -19.5,-19.5 z m 0,15 h 76 c 2.62273,0 4.5,1.877273 4.5,4.5 v 86 c 0,2.62273 -1.87727,4.5 -4.5,4.5 H 27 c -2.622727,0 -4.5,-1.87727 -4.5,-4.5 V 47 c 0,-2.622727 1.877273,-4.5 4.5,-4.5 z"
     id="LeftFrame" />
</svg>
