<?xml version="1.0" encoding="UTF-8" standalone="no"?>
<svg
   width="180"
   height="180"
   viewBox="0 0 180 180"
   fill="none"
   version="1.1"
   id="svg4"
   sodipodi:docname="Saving.svg"
   inkscape:version="1.1 (c68e22c387, 2021-05-23)"
   xmlns:inkscape="http://www.inkscape.org/namespaces/inkscape"
   xmlns:sodipodi="http://sodipodi.sourceforge.net/DTD/sodipodi-0.dtd"
   xmlns="http://www.w3.org/2000/svg"
   xmlns:svg="http://www.w3.org/2000/svg">
  <defs
     id="defs8" />
  <sodipodi:namedview
     id="namedview6"
     pagecolor="#ffffff"
     bordercolor="#666666"
     borderopacity="1.0"
     inkscape:pageshadow="2"
     inkscape:pageopacity="0.0"
     inkscape:pagecheckerboard="0"
     showgrid="false"
     inkscape:zoom="3.4517074"
     inkscape:cx="60.404888"
     inkscape:cy="98.35712"
     inkscape:window-width="1920"
     inkscape:window-height="1009"
     inkscape:window-x="1912"
     inkscape:window-y="120"
     inkscape:window-maximized="1"
     inkscape:current-layer="svg4" />
  <path
     d="M 24.640523,51.622298 75.922151,65.454537 61.844416,40.90906 c 26.903196,-15.635683 61.390124,-6.333585 76.922494,20.748078 4.7398,8.263949 7.21259,17.299322 7.4498,26.215812 l 18.71785,5.049011 C 165.50234,79.173453 162.3901,65.055327 155.02281,52.209581 134.28135,16.046137 88.384042,3.6663747 52.459241,24.545408 L 38.381404,0 Z M 118.15592,139.09087 C 91.252366,154.7264 56.765595,145.4242 41.23307,118.34248 36.493529,110.07905 34.020592,101.04315 33.783267,92.126664 L 15.065442,87.078173 c -0.567806,13.747987 2.544593,27.866637 9.911988,40.711857 20.741302,36.16381 66.638507,48.54339 102.5632,27.66418 L 141.61873,180 155.35956,128.37769 104.07783,114.54508 Z"
     fill="#7188b4"
     id="path2"
     style="stroke-width:5.17411" />
</svg>
